<?xml version="1.0" encoding="iso-8859-1"?>
<!-- Generator: Adobe Illustrator 19.0.0, SVG Export Plug-In . SVG Version: 6.00 Build 0)  -->
<svg version="1.1" id="Layer_1" xmlns="http://www.w3.org/2000/svg" xmlns:xlink="http://www.w3.org/1999/xlink" x="0px" y="0px"
	 viewBox="0 0 491.52 491.52" style="enable-background:new 0 0 491.52 491.52;" xml:space="preserve">
<g>
	<g>
		<path d="M487.989,389.755l-93.109-92.976c-4.813-4.806-12.642-4.674-17.273,0.307c-7.148,7.689-14.64,15.554-21.73,22.634
			c-0.271,0.27-0.501,0.493-0.763,0.755L467.3,432.504c8.91-10.614,16.657-20.41,21.73-26.97
			C492.72,400.762,492.257,394.019,487.989,389.755z"/>
	</g>
</g>
<g>
	<g>
		<path d="M334.3,337.661c-34.304,11.379-77.56,0.413-114.554-29.542c-49.021-39.693-75.972-102.642-65.838-150.593L37.634,41.418
			C17.653,59.424,0,78.545,0,90c0,141.751,260.344,415.896,401.503,400.931c11.296-1.198,30.176-18.651,48.062-38.167L334.3,337.661
			z"/>
	</g>
</g>
<g>
	<g>
		<path d="M193.854,96.041L101.213,3.53c-4.225-4.22-10.882-4.724-15.664-1.145c-6.654,4.983-16.648,12.651-27.453,21.498
			l111.945,111.785c0.061-0.06,0.111-0.113,0.172-0.174c7.238-7.228,15.355-14.885,23.291-22.167
			C198.534,108.713,198.684,100.863,193.854,96.041z"/>
	</g>
</g>
<g>
</g>
<g>
</g>
<g>
</g>
<g>
</g>
<g>
</g>
<g>
</g>
<g>
</g>
<g>
</g>
<g>
</g>
<g>
</g>
<g>
</g>
<g>
</g>
<g>
</g>
<g>
</g>
<g>
</g>
</svg>
