<svg xmlns="http://www.w3.org/2000/svg" xmlns:xlink="http://www.w3.org/1999/xlink" preserveAspectRatio="xMidYMid" width="620" height="134" viewBox="0 0 620 134">
  <defs>
    <style>
      .cls-1 {
        fill: #fff;
        filter: url(#drop-shadow-1);
        fill-rule: evenodd;
      }
    </style>

    <filter id="drop-shadow-1" filterUnits="userSpaceOnUse">
      <feOffset in="SourceAlpha"/>
      <feGaussianBlur stdDeviation="5.831" result="dropBlur"/>
      <feFlood flood-opacity="0.2"/>
      <feComposite operator="in" in2="dropBlur" result="dropShadowComp"/>
      <feComposite in="SourceGraphic" result="shadowed"/>
    </filter>
  </defs>
  <path d="M583.490,106.415 L580.348,106.415 C573.125,106.415 567.215,100.510 567.215,93.292 C567.215,86.074 573.125,80.169 580.348,80.169 L583.490,80.169 C590.713,80.169 596.622,86.074 596.622,93.292 C596.622,100.510 590.713,106.415 583.490,106.415 ZM545.752,53.922 L514.477,53.922 C507.254,53.922 501.344,59.827 501.344,67.045 C501.344,74.264 507.254,80.169 514.477,80.169 L539.298,80.169 C546.522,80.169 552.432,86.074 552.432,93.292 C552.432,100.510 546.522,106.415 539.298,106.415 L104.668,106.415 C97.445,106.415 91.535,100.510 91.535,93.292 C91.535,86.074 97.445,80.169 104.668,80.169 L127.876,80.169 C135.099,80.169 141.009,74.264 141.009,67.045 C141.009,59.827 135.099,53.922 127.876,53.922 L91.224,53.922 C84.001,53.922 78.091,48.017 78.091,40.799 C78.091,33.580 84.001,27.675 91.224,27.675 L439.229,27.675 C439.889,27.675 440.533,27.610 441.167,27.515 L505.093,27.515 C505.728,27.610 506.371,27.675 507.031,27.675 L545.752,27.675 C552.975,27.675 558.885,33.580 558.885,40.799 C558.885,48.017 552.975,53.922 545.752,53.922 ZM84.480,93.837 C84.480,101.055 78.571,106.960 71.348,106.960 L68.206,106.960 C60.983,106.960 55.073,101.055 55.073,93.837 L55.073,93.837 C55.073,86.619 60.983,80.713 68.206,80.713 L71.348,80.713 C78.571,80.713 84.480,86.619 84.480,93.837 L84.480,93.837 ZM54.304,54.895 L36.659,54.895 C29.436,54.895 23.527,48.990 23.527,41.771 C23.527,34.553 29.436,28.648 36.659,28.648 L54.304,28.648 C61.527,28.648 67.436,34.553 67.436,41.771 C67.436,48.990 61.527,54.895 54.304,54.895 Z" class="cls-1"/>
</svg>
