<svg xmlns="http://www.w3.org/2000/svg" xmlns:xlink="http://www.w3.org/1999/xlink" preserveAspectRatio="xMidYMid" width="110" height="38" viewBox="0 0 110 38">
  <defs>
    <style>
      .cls-1 {
        fill: #2862de;
      }

      .cls-1, .cls-2 {
        fill-rule: evenodd;
      }

      .cls-2 {
        fill: #fff;
        filter: url(#drop-shadow-1);
      }
    </style>

    <filter id="drop-shadow-1" filterUnits="userSpaceOnUse">
      <feOffset dx="0.707" dy="0.707" in="SourceAlpha"/>
      <feGaussianBlur stdDeviation="1.414" result="dropBlur"/>
      <feFlood flood-opacity="0.1"/>
      <feComposite operator="in" in2="dropBlur" result="dropShadowComp"/>
      <feComposite in="SourceGraphic" result="shadowed"/>
    </filter>
  </defs>
  <path d="M102.881,37.995 L101.358,37.995 C97.855,37.995 94.990,35.152 94.990,31.677 C94.990,28.201 97.855,25.358 101.358,25.358 L102.881,25.358 C106.383,25.358 109.249,28.201 109.249,31.677 C109.249,35.152 106.383,37.995 102.881,37.995 ZM77.732,25.358 L81.454,25.358 C84.956,25.358 87.822,28.201 87.822,31.677 C87.822,35.152 84.956,37.995 81.454,37.995 L15.591,37.995 C12.088,37.995 9.223,35.152 9.223,31.677 C9.223,28.201 12.088,25.358 15.591,25.358 L26.844,25.358 C30.346,25.358 33.211,22.515 33.211,19.040 C33.211,15.564 30.346,12.721 26.844,12.721 L24.510,12.721 C21.007,12.721 18.142,9.878 18.142,6.403 C18.142,2.927 21.007,0.084 24.510,0.084 L41.246,0.084 C41.566,0.084 41.878,0.053 42.186,0.007 L73.182,0.007 C73.489,0.053 73.801,0.084 74.121,0.084 L79.833,0.084 C83.335,0.084 86.201,2.927 86.201,6.403 C86.201,9.878 83.335,12.721 79.833,12.721 L77.732,12.721 C74.229,12.721 71.364,15.564 71.364,19.040 C71.364,22.515 74.229,25.358 77.732,25.358 ZM6.608,13.190 L6.365,13.190 C2.863,13.190 -0.002,10.346 -0.002,6.871 L-0.002,6.871 C-0.002,3.396 2.863,0.553 6.365,0.553 L6.608,0.553 C10.110,0.553 12.976,3.396 12.976,6.871 L12.976,6.871 C12.976,10.346 10.110,13.190 6.608,13.190 Z" class="cls-1"/>
  <path d="M56.513,9.002 L54.402,9.002 C54.402,9.002 49.997,8.672 49.997,13.315 C49.997,14.308 49.997,16.506 49.997,16.506 L47.007,16.506 L47.015,19.007 L49.996,19.007 L49.998,29.993 L52.995,29.993 L52.995,19.007 L56.295,19.007 L57.000,16.506 L53.012,16.506 L53.012,13.221 C53.012,13.221 52.979,12.002 54.406,12.002 L56.500,12.002 L56.513,9.002 Z" class="cls-2"/>
</svg>
