<svg xmlns="http://www.w3.org/2000/svg" xmlns:xlink="http://www.w3.org/1999/xlink" preserveAspectRatio="xMidYMid" width="168" height="38" viewBox="0 0 168 38">
  <defs>
    <style>
      .cls-1 {
        fill: #fff;
      }

      .cls-1, .cls-2 {
        fill-rule: evenodd;
      }

      .cls-2 {
        fill: #000;
      }
    </style>
  </defs>
  <path d="M160.881,37.995 L159.358,37.995 C155.855,37.995 152.990,35.152 152.990,31.677 C152.990,28.201 155.855,25.358 159.358,25.358 L160.881,25.358 C164.383,25.358 167.249,28.201 167.249,31.677 C167.249,35.152 164.383,37.995 160.881,37.995 ZM135.732,25.358 L139.454,25.358 C142.956,25.358 145.822,28.201 145.822,31.677 C145.822,35.152 142.956,37.995 139.454,37.995 L15.590,37.995 C12.088,37.995 9.223,35.152 9.223,31.677 C9.223,28.201 12.088,25.358 15.590,25.358 L26.844,25.358 C30.346,25.358 33.211,22.515 33.211,19.040 C33.211,15.564 30.346,12.721 26.844,12.721 L24.510,12.721 C21.007,12.721 18.142,9.878 18.142,6.403 C18.142,2.927 21.007,0.084 24.510,0.084 L41.246,0.084 C41.566,0.084 41.878,0.053 42.186,0.007 L131.182,0.007 C131.489,0.053 131.801,0.084 132.121,0.084 L137.833,0.084 C141.335,0.084 144.201,2.927 144.201,6.403 C144.201,9.878 141.335,12.721 137.833,12.721 L135.732,12.721 C132.229,12.721 129.364,15.564 129.364,19.040 C129.364,22.515 132.229,25.358 135.732,25.358 ZM6.608,13.190 L6.365,13.190 C2.863,13.190 -0.002,10.346 -0.002,6.871 L-0.002,6.871 C-0.002,3.396 2.863,0.553 6.365,0.553 L6.608,0.553 C10.110,0.553 12.976,3.396 12.976,6.871 L12.976,6.871 C12.976,10.346 10.110,13.190 6.608,13.190 Z" class="cls-1"/>
  <path d="M113.319,24.661 L111.936,24.661 L111.741,24.661 L110.519,24.661 C109.873,24.661 109.336,24.428 108.887,23.979 C108.367,23.477 108.116,22.760 108.116,21.810 L108.116,13.059 L109.407,13.059 L109.407,21.056 C109.407,21.881 109.533,22.473 109.766,22.832 C109.963,23.136 110.304,23.316 110.788,23.387 C110.914,23.405 111.057,23.405 111.936,23.405 L111.936,23.423 L112.906,23.423 C113.678,23.423 114.180,23.172 114.431,22.670 C114.610,22.347 114.700,21.774 114.700,20.949 L114.700,16.520 L115.955,16.520 L115.955,21.505 C115.955,23.603 115.076,24.661 113.319,24.661 ZM114.682,13.705 L115.955,13.705 L115.955,15.229 L114.682,15.229 L114.682,13.705 ZM112.333,13.705 L113.606,13.705 L113.606,15.229 L112.333,15.229 L112.333,13.705 ZM104.998,25.862 L106.271,25.862 L106.271,27.386 L104.998,27.386 L104.998,25.862 ZM103.635,24.661 L102.242,24.661 L102.057,24.661 L98.764,24.661 C97.670,24.661 96.773,24.194 96.092,23.262 C94.998,24.194 93.653,24.661 92.057,24.661 L89.596,24.661 L89.242,24.661 L83.694,24.661 L83.410,24.661 L82.278,24.661 C81.632,24.661 81.094,24.428 80.646,23.979 C80.126,23.477 79.875,22.760 79.875,21.810 L79.875,13.059 L81.166,13.059 L81.166,21.056 C81.166,21.881 81.292,22.473 81.525,22.832 C81.722,23.136 82.063,23.316 82.547,23.387 C82.672,23.405 82.816,23.405 83.694,23.405 L83.694,23.423 L84.558,23.423 C85.329,23.423 85.831,23.172 86.082,22.688 C86.261,22.347 86.351,21.774 86.351,20.949 L86.351,16.520 L87.606,16.520 L87.606,21.505 C87.606,22.276 87.498,22.921 87.265,23.405 L89.242,23.405 L89.596,23.405 L92.022,23.405 C92.667,23.405 93.223,23.334 93.671,23.172 C94.119,23.011 94.657,22.706 95.267,22.276 C94.281,20.787 93.008,19.730 91.430,19.120 L91.412,17.703 C92.882,16.753 94.371,16.269 95.895,16.269 C97.616,16.269 99.194,16.843 100.611,17.990 C100.162,18.851 99.786,19.514 99.463,19.963 C98.835,20.841 98.046,21.666 97.096,22.401 C97.508,22.903 97.939,23.208 98.369,23.316 C98.566,23.370 99.051,23.405 99.822,23.405 L102.242,23.405 L102.242,23.423 L103.223,23.423 C103.994,23.423 104.496,23.172 104.747,22.670 C104.926,22.347 105.016,21.774 105.016,20.949 L105.016,16.520 L106.271,16.520 L106.271,21.505 C106.271,23.603 105.393,24.661 103.635,24.661 ZM99.158,18.385 C98.387,18.008 97.921,17.793 97.795,17.739 C97.186,17.506 96.576,17.398 95.966,17.398 C94.908,17.398 93.779,17.739 92.542,18.421 C93.348,18.725 94.030,19.138 94.604,19.622 C95.106,20.034 95.644,20.662 96.235,21.469 C97.526,20.590 98.495,19.568 99.158,18.385 ZM86.351,13.705 L87.624,13.705 L87.624,15.229 L86.351,15.229 L86.351,13.705 ZM64.242,24.661 L59.032,24.661 L58.763,24.661 L58.751,24.661 L58.751,24.660 C57.107,24.655 55.839,23.724 55.428,22.186 C55.428,25.181 52.774,27.565 49.726,27.565 C46.427,27.565 43.916,24.768 43.916,21.182 L43.916,19.389 L45.189,19.389 L45.189,20.949 C45.189,24.176 46.929,26.310 49.780,26.310 C52.182,26.310 54.280,24.302 54.280,22.150 C54.280,20.536 53.420,19.712 51.949,19.712 L51.949,18.582 L51.931,18.582 C51.931,18.564 52.254,18.546 52.900,18.546 C53.993,18.546 55.500,19.676 56.056,21.110 C56.719,22.832 57.311,23.405 58.656,23.405 L59.032,23.405 L59.032,23.423 L59.898,23.423 C60.669,23.423 61.172,23.172 61.423,22.688 C61.602,22.347 61.692,21.774 61.692,20.949 L61.692,13.059 L62.947,13.059 L62.947,21.505 C62.947,22.276 62.839,22.921 62.606,23.405 L64.242,23.405 L64.937,23.405 L66.986,23.405 C66.555,22.706 66.340,21.863 66.340,20.895 C66.340,19.622 66.663,18.600 67.326,17.793 C68.026,16.914 69.012,16.484 70.285,16.484 C71.217,16.484 72.024,16.717 72.688,17.165 C73.441,17.650 73.907,18.331 74.068,19.227 L72.544,19.389 C72.329,18.116 71.576,17.488 70.303,17.488 C69.424,17.488 68.779,17.847 68.348,18.582 C68.026,19.174 67.864,19.945 67.864,20.895 C67.864,21.989 68.133,22.832 68.689,23.405 L74.104,23.405 L74.104,24.661 L64.937,24.661 L64.242,24.661 ZM49.331,30.452 L48.058,30.452 L48.058,28.928 L49.331,28.928 L49.331,30.452 ZM51.680,30.452 L50.407,30.452 L50.407,28.928 L51.680,28.928 L51.680,30.452 Z" class="cls-2"/>
</svg>
