<svg xmlns="http://www.w3.org/2000/svg" xmlns:xlink="http://www.w3.org/1999/xlink" preserveAspectRatio="xMidYMid" width="267" height="33" viewBox="0 0 267 33">
  <defs>
    <style>
      .cls-1 {
        fill: #fff;
        fill-rule: evenodd;
      }
    </style>
  </defs>
  <g>
    <path d="M145.081,33.828 L130.944,33.828 L130.944,0.957 L145.081,0.957 C153.573,0.957 159.954,6.297 159.954,17.208 C159.954,26.738 155.088,33.828 145.081,33.828 ZM143.291,7.034 L138.150,7.034 L138.150,27.751 L144.577,27.751 C148.754,27.751 152.747,25.173 152.747,17.899 C152.747,11.269 150.452,7.034 143.291,7.034 ZM100.659,0.957 L125.171,0.957 L125.171,7.034 L107.866,7.034 L107.866,14.078 L123.748,14.078 L123.748,19.694 L107.866,19.694 L107.866,27.751 L125.538,27.751 L125.538,33.828 L100.659,33.828 L100.659,0.957 ZM86.257,33.828 L70.375,33.828 L70.375,0.957 L85.798,0.957 C92.041,0.957 96.264,2.983 96.264,9.106 C96.264,12.328 94.657,14.584 91.811,15.965 C95.805,17.116 97.824,20.201 97.824,24.298 C97.824,30.973 92.179,33.828 86.257,33.828 ZM84.329,6.574 L77.582,6.574 L77.582,14.262 L84.880,14.262 C87.405,14.262 89.287,13.111 89.287,10.349 C89.287,7.218 86.900,6.574 84.329,6.574 ZM85.431,19.188 L77.582,19.188 L77.582,28.211 L85.293,28.211 C88.139,28.211 90.618,27.290 90.618,23.884 C90.618,20.523 88.506,19.188 85.431,19.188 ZM55.789,33.828 L48.583,33.828 L48.583,21.029 L36.510,0.957 L44.635,0.957 L52.301,13.940 L59.920,0.957 L67.953,0.957 L55.789,21.213 L55.789,33.828 ZM28.263,10.533 L28.171,10.533 L20.138,33.828 L14.584,33.828 L6.551,10.763 L6.459,10.763 L6.459,33.828 L-0.288,33.828 L-0.288,0.957 L9.856,0.957 L17.522,23.561 L17.613,23.561 L24.866,0.957 L35.010,0.957 L35.010,33.828 L28.263,33.828 L28.263,10.533 Z" class="cls-1"/>
    <path d="M251.154,21.249 L251.154,21.319 C254.665,21.877 255.395,24.143 255.569,28.223 C255.639,29.792 255.847,32.826 256.438,33.384 L253.657,33.384 C253.205,32.861 253.031,31.013 252.996,28.293 C252.927,23.899 251.258,22.435 246.981,22.435 L237.003,22.435 L237.003,33.384 L234.430,33.384 L234.430,8.486 L247.955,8.486 C252.162,8.486 256.021,9.986 256.021,15.216 C256.021,17.867 254.387,20.517 251.154,21.249 ZM248.129,10.858 L237.003,10.858 L237.003,20.063 L247.885,20.063 C250.702,20.063 253.240,19.017 253.240,15.216 C253.240,11.555 250.493,10.858 248.129,10.858 ZM223.975,25.817 L210.902,25.817 L207.530,33.384 L204.748,33.384 L216.013,8.486 L219.003,8.486 L230.268,33.384 L227.278,33.384 L223.975,25.817 ZM217.473,11.067 L211.945,23.446 L222.932,23.446 L217.473,11.067 ZM198.080,33.384 L195.507,33.384 L195.507,10.858 L185.772,10.858 L185.772,8.486 L207.815,8.486 L207.815,10.858 L198.080,10.858 L198.080,33.384 ZM176.289,19.645 C180.809,20.412 185.329,21.458 185.329,26.235 C185.329,32.338 179.801,34.011 174.968,34.011 C168.675,34.011 164.086,31.850 163.703,25.154 L166.276,25.154 C166.728,30.385 170.205,31.640 174.968,31.640 C178.688,31.640 182.547,30.629 182.547,26.689 C182.547,22.888 178.028,22.435 173.508,21.702 C167.597,20.761 164.433,19.087 164.433,15.077 C164.433,9.637 169.440,7.859 174.238,7.859 C179.314,7.859 184.425,9.672 184.599,15.600 L182.026,15.600 C181.678,11.346 178.236,10.230 174.238,10.230 C170.240,10.230 167.215,11.799 167.215,14.624 C167.215,17.867 170.240,18.634 176.289,19.645 Z" class="cls-1"/>
    <path d="M265.564,8.545 L265.564,5.365 L265.553,5.365 L264.413,8.545 L263.821,8.545 L262.682,5.365 L262.670,5.365 L262.670,8.545 L261.985,8.545 L261.985,4.424 L262.998,4.424 L264.132,7.650 L264.143,7.650 L265.248,4.424 L266.249,4.424 L266.249,8.545 L265.564,8.545 ZM260.462,8.545 L259.742,8.545 L259.742,5.047 L258.442,5.047 L258.442,4.424 L261.768,4.424 L261.768,5.047 L260.462,5.047 L260.462,8.545 Z" class="cls-1"/>
  </g>
</svg>
