<svg xmlns="http://www.w3.org/2000/svg" xmlns:xlink="http://www.w3.org/1999/xlink" preserveAspectRatio="xMidYMid" width="170" height="128" viewBox="0 0 170 128">
  <defs>
    <style>
      .cls-1 {
        fill: #fff;
      }

      .cls-1, .cls-3 {
        fill-rule: evenodd;
      }

      .cls-2, .cls-3 {
        fill: #00cfcd;
      }
    </style>
  </defs>
  <g>
    <path d="M112.428,77.190 C94.392,89.484 73.570,101.925 60.112,101.925 C49.580,101.925 47.033,95.814 47.033,95.814 C47.033,95.814 23.629,103.794 18.840,95.523 C14.826,88.590 26.310,59.581 29.884,52.746 C35.602,41.812 44.020,31.666 59.240,29.175 C67.791,27.776 72.945,29.840 75.663,31.648 C77.686,22.956 84.406,13.748 94.405,7.313 C110.408,-2.985 128.797,-2.383 135.235,8.917 C141.721,20.302 133.443,37.877 116.998,47.912 C100.874,57.752 83.095,56.514 77.046,45.392 C75.383,42.333 74.803,38.815 75.119,35.121 C72.647,33.762 66.923,31.084 61.274,31.794 C53.786,32.735 43.379,36.487 36.279,53.037 C29.178,69.587 27.918,85.207 30.756,87.084 C33.595,88.961 68.699,79.888 81.329,76.317 C93.959,72.746 126.374,62.697 125.217,58.275 C124.060,53.853 61.565,64.095 61.565,64.095 C61.565,64.095 137.568,44.836 140.912,52.164 C142.546,55.745 128.333,66.349 112.428,77.190 ZM80.856,41.909 C86.376,51.690 102.603,52.778 117.321,44.125 C132.330,35.300 139.886,19.843 133.965,9.830 C128.089,-0.108 111.306,-0.637 96.699,8.420 C82.374,17.302 75.375,32.199 80.856,41.909 ZM64.762,91.158 C64.762,91.158 67.901,95.096 75.516,93.777 C89.332,91.383 115.569,71.527 120.276,66.714 L64.762,91.158 Z" class="cls-1"/>
    <path d="M88.355,127.099 L81.496,127.099 L81.496,111.172 L88.355,111.172 C92.476,111.172 95.571,113.760 95.571,119.046 C95.571,123.664 93.211,127.099 88.355,127.099 ZM87.487,114.117 L84.992,114.117 L84.992,124.155 L88.110,124.155 C90.137,124.155 92.075,122.905 92.075,119.381 C92.075,116.169 90.961,114.117 87.487,114.117 ZM66.802,111.172 L78.695,111.172 L78.695,114.117 L70.298,114.117 L70.298,117.530 L78.004,117.530 L78.004,120.251 L70.298,120.251 L70.298,124.155 L78.873,124.155 L78.873,127.099 L66.802,127.099 L66.802,111.172 ZM59.814,127.099 L52.108,127.099 L52.108,111.172 L59.591,111.172 C62.620,111.172 64.669,112.154 64.669,115.121 C64.669,116.682 63.890,117.775 62.509,118.444 C64.446,119.002 65.426,120.496 65.426,122.482 C65.426,125.716 62.687,127.099 59.814,127.099 ZM58.878,113.894 L55.605,113.894 L55.605,117.619 L59.146,117.619 C60.371,117.619 61.284,117.061 61.284,115.723 C61.284,114.206 60.126,113.894 58.878,113.894 ZM59.413,120.006 L55.605,120.006 L55.605,124.378 L59.346,124.378 C60.727,124.378 61.930,123.931 61.930,122.281 C61.930,120.652 60.905,120.006 59.413,120.006 ZM45.031,127.099 L41.534,127.099 L41.534,120.898 L35.677,111.172 L39.619,111.172 L43.338,117.463 L47.035,111.172 L50.933,111.172 L45.031,120.987 L45.031,127.099 ZM31.675,115.812 L31.631,115.812 L27.733,127.099 L25.038,127.099 L21.141,115.924 L21.096,115.924 L21.096,127.099 L17.822,127.099 L17.822,111.172 L22.744,111.172 L26.464,122.125 L26.508,122.125 L30.027,111.172 L34.949,111.172 L34.949,127.099 L31.675,127.099 L31.675,115.812 Z" class="cls-1"/>
    <path d="M139.821,121.038 C141.525,121.308 141.879,122.407 141.964,124.383 C141.997,125.144 142.099,126.614 142.385,126.884 L141.036,126.884 C140.817,126.630 140.732,125.735 140.715,124.417 C140.682,122.288 139.872,121.579 137.797,121.579 L132.956,121.579 L132.956,126.884 L131.707,126.884 L131.707,114.821 L138.269,114.821 C140.311,114.821 142.183,115.547 142.183,118.081 C142.183,119.365 141.390,120.649 139.821,121.004 L139.821,121.038 ZM140.833,118.081 C140.833,116.307 139.501,115.969 138.354,115.969 L132.956,115.969 L132.956,120.430 L138.236,120.430 C139.602,120.430 140.833,119.923 140.833,118.081 ZM126.634,123.218 L120.292,123.218 L118.655,126.884 L117.306,126.884 L122.771,114.821 L124.222,114.821 L129.688,126.884 L128.237,126.884 L126.634,123.218 ZM123.480,116.071 L120.798,122.069 L126.128,122.069 L123.480,116.071 ZM114.070,126.884 L112.822,126.884 L112.822,115.969 L108.098,115.969 L108.098,114.821 L118.794,114.821 L118.794,115.969 L114.070,115.969 L114.070,126.884 ZM103.497,120.227 C105.690,120.599 107.883,121.106 107.883,123.420 C107.883,126.377 105.201,127.188 102.856,127.188 C99.803,127.188 97.576,126.140 97.391,122.897 L98.639,122.897 C98.858,125.431 100.545,126.039 102.856,126.039 C104.661,126.039 106.534,125.549 106.534,123.640 C106.534,121.798 104.341,121.579 102.148,121.224 C99.280,120.768 97.745,119.957 97.745,118.014 C97.745,115.378 100.174,114.516 102.502,114.516 C104.965,114.516 107.445,115.395 107.529,118.267 L106.281,118.267 C106.112,116.206 104.442,115.665 102.502,115.665 C100.562,115.665 99.094,116.426 99.094,117.794 C99.094,119.365 100.562,119.737 103.497,120.227 Z" class="cls-1"/>
    <path d="M146.813,114.849 L146.813,113.308 L146.808,113.308 L146.255,114.849 L145.967,114.849 L145.415,113.308 L145.409,113.308 L145.409,114.849 L145.077,114.849 L145.077,112.852 L145.568,112.852 L146.118,114.415 L146.124,114.415 L146.660,112.852 L147.146,112.852 L147.146,114.849 L146.813,114.849 ZM144.338,114.849 L143.989,114.849 L143.989,113.154 L143.358,113.154 L143.358,112.852 L144.971,112.852 L144.971,113.154 L144.338,113.154 L144.338,114.849 Z" class="cls-1"/>
    <circle cx="4" cy="124" r="4" class="cls-2"/>
    <path d="M152.500,107.000 L168.500,107.000 C169.328,107.000 170.000,107.672 170.000,108.500 C170.000,109.328 169.328,110.000 168.500,110.000 L152.500,110.000 C151.672,110.000 151.000,109.328 151.000,108.500 C151.000,107.672 151.672,107.000 152.500,107.000 Z" class="cls-3"/>
  </g>
</svg>
