<svg xmlns="http://www.w3.org/2000/svg" xmlns:xlink="http://www.w3.org/1999/xlink" preserveAspectRatio="xMidYMid" width="176" height="63" viewBox="0 0 176 63">
  <defs>
    <style>
      .cls-1 {
        fill: #00b8b6;
        fill-rule: evenodd;
      }
    </style>
  </defs>
  <path d="M175.884,20.701 C175.759,26.240 175.543,31.779 175.266,37.314 C175.073,41.174 174.238,42.158 170.446,42.848 C157.384,45.223 144.310,47.528 131.239,49.855 C115.563,52.645 99.887,55.434 84.210,58.218 C76.465,59.594 68.751,61.215 60.958,62.204 C57.583,62.633 53.803,62.449 50.621,61.340 C35.477,56.065 20.470,50.390 5.427,44.824 C1.373,43.324 0.231,41.631 0.191,37.365 C0.165,34.592 0.186,31.817 0.186,29.043 C0.185,26.365 0.169,23.687 0.189,21.008 C0.221,16.812 1.514,15.070 5.671,14.360 C10.525,13.531 15.426,12.975 20.311,12.329 C33.938,10.526 47.567,8.748 61.193,6.941 C77.823,4.736 94.444,2.462 111.086,0.353 C113.287,0.075 115.666,0.273 117.830,0.802 C135.509,5.125 153.157,9.576 170.813,13.993 C174.742,14.976 175.978,16.508 175.884,20.701 ZM172.339,17.642 C172.335,17.642 172.330,17.642 172.326,17.642 C172.323,17.633 172.322,17.625 172.320,17.616 C171.472,17.285 170.644,16.874 169.769,16.652 C156.909,13.388 144.051,10.111 131.174,6.919 C122.025,4.652 113.125,2.212 103.271,3.925 C85.164,7.072 66.850,9.008 48.622,11.456 C34.526,13.348 20.434,15.270 6.333,17.125 C4.050,17.425 3.051,18.410 3.105,20.845 C3.221,26.007 3.080,31.174 3.076,36.340 C3.073,40.822 3.207,41.045 7.356,42.571 C21.695,47.847 36.044,53.097 50.393,58.345 C51.161,58.626 51.967,58.804 53.066,59.118 C53.066,53.748 53.013,48.692 53.119,43.640 C53.137,42.791 53.844,41.957 54.233,41.115 C54.647,41.941 55.399,42.758 55.421,43.595 C55.543,48.279 55.509,52.968 55.487,57.654 C55.476,59.834 56.464,60.263 58.439,59.516 C58.439,54.458 58.363,49.492 58.496,44.532 C58.526,43.395 59.275,42.277 59.693,41.150 C60.069,42.283 60.742,43.409 60.771,44.551 C60.892,49.399 60.822,54.252 60.822,59.351 C61.940,59.212 62.675,59.153 63.398,59.025 C86.360,54.932 109.318,50.822 132.281,46.739 C144.509,44.565 156.739,42.402 168.982,40.316 C171.286,39.924 172.397,39.061 172.433,36.470 C172.508,31.031 172.988,25.599 173.182,20.159 C173.212,19.332 172.653,18.483 172.339,17.642 ZM151.272,38.264 C144.265,39.424 137.232,40.428 130.205,41.459 C130.048,41.482 129.866,41.326 129.366,41.113 C129.366,39.188 129.197,37.091 129.459,35.050 C129.548,34.350 130.640,33.362 131.397,33.231 C137.930,32.106 144.491,31.139 151.047,30.153 C151.492,30.086 152.359,30.193 152.375,30.308 C152.647,32.336 152.969,34.381 152.922,36.414 C152.907,37.067 151.934,38.155 151.272,38.264 ZM148.455,33.409 C143.486,34.128 138.525,34.907 133.582,35.785 C133.025,35.884 132.592,36.693 132.102,37.173 C132.592,37.585 133.081,37.997 133.370,38.240 C138.873,37.374 143.932,36.615 148.967,35.721 C149.401,35.645 149.679,34.681 150.029,34.130 C149.503,33.875 148.936,33.339 148.455,33.409 ZM75.959,51.494 C75.959,48.917 75.782,46.913 76.054,44.974 C76.152,44.276 77.259,43.318 78.028,43.182 C84.655,42.009 91.309,40.991 97.958,39.954 C98.399,39.886 99.256,39.984 99.277,40.111 C99.578,41.947 99.912,43.801 99.917,45.651 C99.918,46.427 99.266,47.800 98.739,47.891 C91.311,49.171 83.852,50.277 75.959,51.494 ZM96.635,43.067 C91.329,43.852 86.017,44.594 80.728,45.479 C80.117,45.581 79.637,46.477 79.097,47.004 C79.780,47.292 80.507,47.902 81.140,47.815 C85.914,47.164 90.680,46.437 95.418,45.563 C96.101,45.437 96.619,44.401 97.213,43.786 C97.020,43.546 96.827,43.306 96.635,43.067 ZM12.756,17.388 C15.719,16.922 18.681,16.456 22.092,15.920 C21.863,16.451 21.658,16.927 21.427,17.464 C22.345,17.904 23.296,18.360 24.776,19.069 C21.187,19.526 18.241,19.902 15.124,20.299 C15.197,19.911 15.319,19.264 15.448,18.585 C14.544,18.357 13.639,18.129 12.734,17.901 C12.741,17.730 12.749,17.559 12.756,17.388 ZM28.961,16.715 C28.946,16.510 28.931,16.307 28.915,16.103 C31.994,15.599 35.072,15.096 38.396,14.551 C38.103,15.111 37.836,15.621 37.602,16.069 C38.580,16.547 39.581,17.035 40.675,17.568 C37.259,18.193 34.195,18.752 31.135,19.312 C31.375,18.651 31.615,17.990 31.873,17.283 C30.880,17.089 29.921,16.902 28.961,16.715 ZM31.098,19.412 L31.023,19.332 C31.060,19.325 31.098,19.319 31.135,19.312 C31.123,19.345 31.110,19.379 31.098,19.412 ZM31.097,19.411 C31.055,19.420 31.013,19.428 30.972,19.436 C30.989,19.401 31.006,19.367 31.023,19.332 C31.023,19.332 31.098,19.412 31.097,19.411 ZM30.108,21.195 C31.078,21.707 32.060,22.223 33.305,22.879 C29.911,23.309 27.030,23.675 23.961,24.064 C23.977,23.772 24.016,23.054 24.062,22.195 C23.125,22.052 22.252,21.918 21.379,21.784 C21.369,21.636 21.359,21.488 21.349,21.340 C24.556,20.705 27.763,20.070 30.972,19.436 C30.665,20.061 30.361,20.680 30.108,21.195 ZM32.437,25.811 C35.504,25.339 38.571,24.866 42.129,24.318 C41.606,25.018 41.294,25.436 41.005,25.823 C42.018,26.294 43.041,26.769 44.481,27.439 C40.944,27.925 38.011,28.327 34.979,28.743 C35.058,28.329 35.185,27.668 35.320,26.966 C34.274,26.762 33.345,26.581 32.416,26.400 C32.423,26.204 32.430,26.007 32.437,25.811 ZM57.506,24.512 C58.509,25.042 59.462,25.546 60.632,26.164 C57.193,26.640 54.241,27.048 51.179,27.472 C51.301,27.008 51.473,26.351 51.680,25.562 C50.626,25.371 49.683,25.200 48.741,25.029 C48.728,24.847 48.715,24.665 48.701,24.483 C51.781,24.028 54.861,23.574 58.099,23.096 C57.909,23.550 57.666,24.131 57.506,24.512 ZM68.927,29.560 C69.894,29.992 70.859,30.422 72.493,31.151 C68.792,31.579 65.855,31.919 62.780,32.275 C62.821,31.967 62.909,31.286 62.995,30.628 C62.025,30.413 61.155,30.219 60.285,30.026 C60.278,29.850 60.271,29.675 60.264,29.499 C63.275,29.018 66.285,28.538 69.515,28.022 C69.328,28.511 69.126,29.040 68.927,29.560 ZM85.930,27.601 C86.855,28.087 87.770,28.566 88.998,29.210 C85.596,29.654 82.733,30.027 79.655,30.429 C79.673,30.188 79.721,29.542 79.778,28.781 C78.725,28.527 77.865,28.320 77.004,28.113 C77.004,27.950 77.004,27.787 77.004,27.624 C80.047,27.134 83.090,26.643 86.349,26.117 C86.242,26.497 86.073,27.096 85.930,27.601 ZM101.929,24.685 C102.940,25.137 103.954,25.591 105.586,26.321 C101.835,26.829 98.894,27.228 95.816,27.645 C95.953,27.189 96.142,26.558 96.363,25.818 C95.328,25.604 94.307,25.393 93.286,25.182 C93.282,25.015 93.277,24.847 93.273,24.679 C96.360,24.192 99.447,23.704 102.746,23.183 C102.467,23.696 102.187,24.209 101.929,24.685 ZM118.423,22.750 C119.418,23.181 120.430,23.619 122.078,24.333 C118.343,24.857 115.416,25.268 112.321,25.703 C112.384,25.272 112.481,24.601 112.596,23.810 C111.663,23.611 110.719,23.409 109.775,23.207 C109.769,23.052 109.763,22.897 109.757,22.742 C112.844,22.249 115.932,21.757 119.237,21.229 C118.959,21.748 118.687,22.256 118.423,22.750 ZM118.076,16.792 C117.199,16.662 116.245,16.520 115.292,16.379 C115.227,16.098 115.164,15.817 115.100,15.536 C118.016,14.369 123.189,17.362 123.466,11.166 C122.584,10.996 121.638,10.815 120.692,10.633 C120.675,10.487 120.658,10.341 120.641,10.195 C123.623,9.497 126.605,8.800 129.792,8.055 C129.636,8.545 129.443,9.148 129.266,9.703 C130.272,10.000 131.281,10.298 132.290,10.596 C132.272,10.805 132.253,11.013 132.235,11.222 C130.455,11.468 128.537,11.382 126.937,12.059 C125.527,12.656 124.473,14.105 123.095,15.325 C124.763,16.034 125.810,16.480 127.519,17.207 C123.823,17.696 120.948,18.077 117.853,18.486 C117.881,18.278 117.963,17.653 118.076,16.792 ZM126.903,20.425 C129.874,19.935 132.845,19.446 135.976,18.930 C135.833,19.343 135.649,19.876 135.469,20.398 C136.413,20.819 137.355,21.240 138.298,21.661 C138.249,21.923 138.200,22.186 138.150,22.449 C136.713,22.449 135.256,22.297 133.845,22.491 C132.397,22.689 130.994,23.223 129.316,23.680 C129.381,23.024 129.445,22.372 129.525,21.552 C128.638,21.348 127.704,21.134 126.769,20.920 C126.814,20.755 126.859,20.590 126.903,20.425 ZM134.923,14.986 C134.018,14.863 133.047,14.730 132.076,14.598 C132.049,14.417 132.021,14.235 131.994,14.054 C135.032,13.316 138.069,12.578 141.371,11.776 C141.142,12.382 140.942,12.910 140.763,13.382 C141.749,13.739 142.733,14.096 143.717,14.452 C143.628,14.613 143.539,14.774 143.450,14.934 C140.664,15.492 137.879,16.050 134.923,16.642 C134.923,16.378 134.923,15.736 134.923,14.986 ZM153.869,17.237 C154.743,17.613 155.774,18.056 157.224,18.679 C153.656,19.383 150.816,19.943 147.835,20.531 C147.866,20.328 147.963,19.687 148.087,18.869 C147.140,18.747 146.111,18.615 145.082,18.483 C145.067,18.300 145.052,18.118 145.037,17.935 C148.037,17.229 151.036,16.524 154.217,15.776 C154.136,16.114 154.009,16.647 153.869,17.237 ZM114.402,9.681 C114.420,9.396 114.464,8.743 114.508,8.078 C113.514,7.909 112.573,7.749 111.633,7.588 C111.629,7.410 111.625,7.232 111.621,7.054 C114.616,6.388 117.611,5.722 121.020,4.964 C120.665,5.619 120.430,6.052 120.231,6.419 C121.283,6.787 122.280,7.136 123.942,7.717 C120.288,8.469 117.424,9.059 114.402,9.681 ZM112.657,11.161 C113.673,11.592 114.695,12.027 116.366,12.738 C112.569,13.281 109.740,13.685 106.711,14.118 C106.726,13.843 106.762,13.184 106.806,12.378 C105.920,12.179 104.979,11.967 104.038,11.755 C104.032,11.598 104.027,11.441 104.021,11.283 C107.107,10.746 110.193,10.208 113.623,9.611 C113.232,10.238 112.959,10.677 112.657,11.161 ZM97.665,10.478 C97.774,10.075 97.935,9.478 98.138,8.727 C97.177,8.575 96.234,8.425 95.291,8.276 C95.274,8.079 95.257,7.883 95.239,7.686 C98.284,7.151 101.328,6.617 104.663,6.032 C104.293,6.618 103.987,7.102 103.755,7.471 C104.775,7.913 105.816,8.365 107.415,9.058 C103.788,9.586 100.885,10.009 97.665,10.478 ZM80.936,12.225 C81.098,11.687 81.278,11.087 81.470,10.449 C80.488,10.258 79.524,10.071 78.560,9.884 C78.550,9.696 78.539,9.509 78.529,9.321 C81.609,8.823 84.689,8.326 88.006,7.790 C87.723,8.334 87.461,8.835 87.244,9.252 C88.239,9.723 89.209,10.183 90.688,10.884 C87.029,11.387 84.042,11.797 80.936,12.225 ZM64.530,14.240 C64.640,13.723 64.793,13.001 64.947,12.276 C63.916,12.101 62.955,11.939 61.994,11.777 C61.990,11.594 61.986,11.411 61.982,11.228 C65.012,10.761 68.042,10.293 71.523,9.756 C71.285,10.317 71.082,10.794 70.877,11.278 C71.781,11.725 72.701,12.180 74.095,12.871 C70.545,13.379 67.620,13.798 64.530,14.240 ZM73.537,16.137 C72.624,16.008 71.732,15.881 70.841,15.755 C70.818,15.535 70.795,15.315 70.773,15.095 C73.826,14.608 76.878,14.122 80.138,13.602 C79.992,14.040 79.812,14.577 79.629,15.124 C80.484,15.553 81.348,15.986 82.761,16.695 C79.277,17.171 76.421,17.561 73.359,17.979 C73.393,17.621 73.462,16.910 73.537,16.137 ZM90.159,14.153 C89.165,13.976 88.208,13.806 87.251,13.636 C87.230,13.442 87.209,13.250 87.188,13.057 C90.182,12.621 93.176,12.186 96.401,11.717 C96.337,12.000 96.202,12.600 96.091,13.093 C97.032,13.561 97.972,14.028 99.300,14.688 C95.797,15.193 92.874,15.614 89.816,16.054 C89.893,15.627 90.012,14.965 90.159,14.153 ZM101.018,20.602 C101.018,20.277 101.018,19.541 101.018,18.642 C100.151,18.534 99.275,18.426 98.400,18.318 C98.376,18.124 98.352,17.929 98.328,17.735 C101.394,17.239 104.460,16.742 107.998,16.170 C107.535,16.835 107.203,17.311 106.962,17.657 C108.035,18.199 109.026,18.699 110.306,19.345 C106.922,19.803 104.055,20.191 101.018,20.602 ZM81.949,19.719 C85.040,19.232 88.132,18.744 91.528,18.208 C91.148,18.818 90.873,19.257 90.584,19.720 C91.537,20.144 92.513,20.579 94.179,21.321 C90.465,21.815 87.530,22.205 84.413,22.619 C84.465,22.250 84.558,21.598 84.660,20.879 C83.750,20.655 82.832,20.429 81.916,20.204 C81.927,20.042 81.938,19.881 81.949,19.719 ZM65.629,22.582 C68.662,22.121 71.696,21.661 74.968,21.164 C74.670,21.731 74.398,22.249 74.128,22.768 C75.134,23.130 76.139,23.490 77.143,23.851 C77.122,24.003 77.100,24.154 77.079,24.306 C74.148,24.713 71.216,25.119 68.088,25.553 C68.130,25.149 68.193,24.552 68.276,23.760 C67.425,23.599 66.557,23.435 65.690,23.271 C65.669,23.042 65.649,22.812 65.629,22.582 ZM54.556,17.987 C57.654,17.499 60.753,17.012 64.184,16.471 C63.721,17.162 63.405,17.634 63.156,18.006 C64.207,18.463 65.183,18.887 66.888,19.628 C63.129,20.103 60.206,20.474 57.117,20.865 C57.148,20.566 57.219,19.898 57.298,19.151 C56.389,18.941 55.464,18.726 54.539,18.513 C54.544,18.337 54.550,18.162 54.556,17.987 ZM37.640,19.863 C40.665,19.389 43.689,18.916 46.903,18.413 C46.804,18.815 46.668,19.362 46.531,19.917 C47.421,20.338 48.361,20.782 49.855,21.488 C46.207,21.991 43.270,22.396 40.187,22.821 C40.293,22.347 40.437,21.698 40.604,20.949 C39.571,20.746 38.619,20.558 37.666,20.369 C37.657,20.201 37.649,20.032 37.640,19.863 ZM48.260,17.110 C48.361,16.647 48.504,16.000 48.676,15.218 C47.612,15.050 46.645,14.897 45.679,14.744 C45.662,14.556 45.645,14.368 45.628,14.181 C48.765,13.691 51.901,13.200 55.248,12.678 C55.001,13.220 54.760,13.750 54.567,14.173 C55.552,14.690 56.527,15.201 57.712,15.821 C54.156,16.306 51.273,16.699 48.260,17.110 ZM170.021,20.729 C142.369,25.452 114.734,30.278 87.090,35.048 C77.753,36.659 68.423,38.340 59.043,39.643 C56.530,39.992 53.681,39.527 51.260,38.659 C36.174,33.248 21.159,27.636 6.153,22.003 C5.350,21.702 4.838,20.612 4.191,19.889 C5.155,19.739 6.256,19.206 7.062,19.498 C19.190,23.893 31.277,28.404 43.382,32.865 C44.631,33.326 46.051,34.226 47.020,31.934 C45.922,31.744 44.967,31.578 44.013,31.413 C43.972,31.215 43.931,31.018 43.890,30.820 C46.892,30.337 49.894,29.854 53.135,29.332 C53.050,29.751 52.935,30.313 52.820,30.878 C53.661,31.305 54.579,31.771 56.080,32.533 C52.848,32.861 50.374,33.113 47.900,33.364 C47.907,33.657 47.914,33.951 47.921,34.244 C51.839,36.449 56.036,37.568 60.563,36.791 C81.956,33.121 103.338,29.390 124.724,25.683 C140.137,23.011 155.551,20.340 170.966,17.680 C171.409,17.604 171.871,17.647 172.326,17.642 C172.912,19.663 172.079,20.378 170.021,20.729 Z" class="cls-1"/>
</svg>
